<?xml version="1.0" encoding="UTF-8" standalone="no"?>
<!-- Created with Inkscape (http://www.inkscape.org/) -->

<svg
   width="30"
   height="30"
   viewBox="0 0 146.05 158.75"
   version="1.1"
   id="svg1"
   inkscape:version="1.3.2 (091e20e, 2023-11-25, custom)"
   sodipodi:docname="C icon only.svg"
   xml:space="preserve"
   xmlns:inkscape="http://www.inkscape.org/namespaces/inkscape"
   xmlns:sodipodi="http://sodipodi.sourceforge.net/DTD/sodipodi-0.dtd"
   xmlns="http://www.w3.org/2000/svg"
   xmlns:svg="http://www.w3.org/2000/svg"><sodipodi:namedview
     id="namedview1"
     pagecolor="#ffffff"
     bordercolor="#000000"
     borderopacity="0.25"
     inkscape:showpageshadow="2"
     inkscape:pageopacity="0.0"
     inkscape:pagecheckerboard="0"
     inkscape:deskcolor="#d1d1d1"
     inkscape:document-units="mm"
     inkscape:zoom="0.51717105"
     inkscape:cx="170.15647"
     inkscape:cy="221.39677"
     inkscape:window-width="1920"
     inkscape:window-height="1017"
     inkscape:window-x="-8"
     inkscape:window-y="-8"
     inkscape:window-maximized="1"
     inkscape:current-layer="layer1" /><defs
     id="defs1"><clipPath
       clipPathUnits="userSpaceOnUse"
       id="clipPath13"><rect
         style="fill:#333333;stroke-width:0.772999"
         id="rect14"
         width="69.095009"
         height="23.061815"
         x="217.86632"
         y="-302.155"
         ry="0.23329401" /></clipPath></defs><g
     inkscape:label="Layer 1"
     inkscape:groupmode="layer"
     id="layer1"><rect
       style="opacity:1;fill:#262142;fill-opacity:1;stroke-width:1.88709"
       id="rect66"
       width="79.838676"
       height="56.389751"
       x="71.322121"
       y="56.160725"
       transform="matrix(0.93717267,-0.34886587,0,1,0,0)"
       ry="4.7189293"
       inkscape:export-filename="C icon only.png"
       inkscape:export-xdpi="200"
       inkscape:export-ydpi="200" /><rect
       style="opacity:1;fill:#262142;fill-opacity:1;stroke-width:1.70563"
       id="rect67"
       width="108.63204"
       height="133.45197"
       x="6.5751114"
       y="18.860397"
       ry="3.4453244" /><path
       id="path71"
       style="opacity:1;fill:#fafafa;fill-opacity:1;stroke-width:1.4917"
       d="M 14.263878,26.132679 V 145.03963 H 107.5187 V 71.338301 l -33.339248,12.26216 c -4.358429,1.602991 -7.866734,-0.844525 -7.866734,-5.488403 V 40.009734 c 0,-4.643878 3.508305,-9.672864 7.866734,-11.275856 l 7.072787,-2.601199 z" /><rect
       style="opacity:1;fill:#262142;fill-opacity:1;stroke-width:1.51126"
       id="rect71"
       width="27.587479"
       height="5.9212151"
       x="26.201229"
       y="43.734169"
       ry="2.8260345" /><rect
       style="opacity:1;fill:#262142;fill-opacity:1;stroke-width:1.51126"
       id="rect72"
       width="27.587479"
       height="5.9212151"
       x="26.201229"
       y="59.882942"
       ry="2.8260345" /><rect
       style="opacity:1;fill:#262142;fill-opacity:1;stroke-width:1.51126"
       id="rect73"
       width="27.587479"
       height="5.9212151"
       x="26.201229"
       y="75.897125"
       ry="2.8260345" /><rect
       style="opacity:1;fill:#262142;fill-opacity:1;stroke-width:2.43704"
       id="rect74"
       width="71.74057"
       height="5.9212151"
       x="26.201229"
       y="113.96015"
       ry="2.8260345" /><rect
       style="opacity:1;fill:#262142;fill-opacity:1;stroke-width:1.94659"
       id="rect75"
       width="38.729309"
       height="6.9977994"
       x="26.201229"
       y="127.12453"
       ry="3.3398588" /><circle
       style="opacity:1;fill:#262142;fill-opacity:1;stroke-width:4.18704"
       id="circle75"
       cx="36.473309"
       cy="97.819016"
       r="9.5085106" /><circle
       style="opacity:1;fill:#ff7b01;fill-opacity:1;stroke-width:1.61041"
       id="circle76"
       cx="36.473309"
       cy="97.819016"
       r="3.657119" /><rect
       style="opacity:1;fill:#262142;fill-opacity:1;stroke-width:0.972711"
       id="rect76"
       width="14.103122"
       height="4.7984524"
       x="50.446186"
       y="93.206215"
       ry="2.2901707" /><rect
       style="opacity:1;fill:#262142;fill-opacity:1;stroke-width:0.982872"
       id="rect77"
       width="14.399319"
       height="4.7984524"
       x="81.567276"
       y="93.206215"
       ry="2.2901707" /><rect
       style="opacity:1;fill:#c2dcf5;fill-opacity:1;stroke-width:1.5453"
       id="rect78"
       width="24.407185"
       height="6.9977994"
       x="71.956154"
       y="127.12453"
       ry="3.3398588" /><path
       id="path78"
       style="opacity:1;fill:#8c4bf6;fill-opacity:1;stroke-width:1.48148"
       d="m 129.58087,12.696255 c -1.594,1.150119 -53.887834,22.0156 -53.887834,22.0156 l 27.461524,13.489918 c 0,0 24.87192,-33.877553 26.42631,-35.505518 z m 4.78596,6.270305 -16.55324,20.051609 16.55324,9.150983 z M 72.731899,40.498224 c 0,0 -0.820556,27.134468 0,26.914575 C 73.552454,67.192907 87.938894,48.43775 87.938894,48.43775 Z m 40.103181,4.441174 c 0,0 -5.37728,8.41954 -8.6126,10.227523 -2.09347,0.761266 -9.555538,-4.037715 -9.555538,-4.037715 L 73.943318,77.640341 132.34746,55.301762 Z" /><path
       id="path79"
       style="opacity:1;fill:#b991fa;fill-opacity:1;stroke-width:1.24731"
       d="m 129.58107,12.696057 c -1.5942,1.15012 -53.887836,22.015561 -53.887836,22.015561 l 4.566178,2.243452 44.881638,-18.481375 c 2.33906,-3.118724 4.07241,-5.392589 4.44002,-5.777638 z" /><path
       id="path80"
       style="opacity:1;fill:#650df4;fill-opacity:1;stroke-width:1.24731"
       d="M 126.1045,51.985891 79.509026,70.520524 73.943514,77.640104 132.34746,55.301545 Z" /><path
       id="path81"
       style="opacity:1;fill:#650df4;fill-opacity:1;stroke-width:1.48148"
       d="m 134.36703,18.966323 -3.24715,3.933348 v 23.473857 l 3.24715,1.795388 z" /><path
       id="path82"
       style="opacity:1;fill:#c2dcf5;fill-opacity:1;stroke-width:2.04258"
       d="m 70.314777,26.132146 -0.08475,0.03056 c -4.907174,1.766411 -8.857393,7.387152 -8.857393,12.602561 v 37.655384 c 0,4.577551 3.044316,7.274251 7.106493,6.671556 -1.340524,-1.008713 -2.166206,-2.734543 -2.166206,-4.980556 v -38.10235 c 0,-4.643859 3.508307,-9.672845 7.866735,-11.275836 l 7.072785,-2.601201 z" /><path
       id="path83"
       style="opacity:1;fill:#c2d8f4;fill-opacity:1;stroke-width:1.4917"
       d="m 65.212468,26.132146 c -2.242289,2.298404 -3.744243,5.469322 -3.744243,8.494145 v 38.102344 c 0,3.512149 2.008518,5.763958 4.871891,5.961439 -0.01971,-0.190406 -0.02759,-0.379805 -0.02759,-0.578529 V 40.009202 c 0,-4.643859 3.508306,-9.672844 7.866735,-11.275856 l 7.072786,-2.6012 z m 42.306422,45.205643 -4.84467,1.782319 V 139.65623 H 14.264076 v 5.3829 h 93.254814 z" /></g></svg>
