<svg xmlns="http://www.w3.org/2000/svg" xmlns:xlink="http://www.w3.org/1999/xlink" width="30" height="30" viewBox="0 0 24 24" fill="none" stroke="currentColor" x-show="iPaymentDetail()?.includes('woocommerce')">
                                            <path style=" stroke:none;fill-rule:nonzero;fill:rgb(41.960784%,44.705882%,50.196078%);fill-opacity:1;" d="M 20.636719 6.089844 L 3.363281 6.089844 C 2.359375 6.089844 1.546875 6.90625 1.546875 7.910156 L 1.546875 15.183594 C 1.546875 16.1875 2.359375 17 3.363281 17 L 12 17 L 15.636719 18.816406 L 14.726562 17 L 20.636719 17 C 21.640625 17 22.453125 16.1875 22.453125 15.183594 L 22.453125 7.910156 C 22.453125 6.90625 21.640625 6.089844 20.636719 6.089844 Z M 20.636719 6.089844 "></path>
                                            <path style=" stroke:none;fill-rule:nonzero;fill:rgb(100%,100%,100%);fill-opacity:1;" d="M 19.472656 9.726562 C 19.492188 9.726562 19.535156 9.730469 19.601562 9.746094 C 19.753906 9.78125 19.855469 9.835938 19.972656 10.054688 C 20.113281 10.308594 20.183594 10.640625 20.183594 11.0625 C 20.183594 11.699219 20.039062 12.261719 19.738281 12.792969 C 19.417969 13.363281 19.183594 13.363281 19.070312 13.363281 C 19.050781 13.363281 19.011719 13.359375 18.945312 13.347656 C 18.789062 13.3125 18.691406 13.257812 18.578125 13.042969 C 18.433594 12.78125 18.363281 12.4375 18.363281 12.019531 C 18.363281 11.382812 18.507812 10.824219 18.800781 10.308594 C 19.132812 9.726562 19.371094 9.726562 19.472656 9.726562 M 19.472656 8.363281 C 18.714844 8.363281 18.097656 8.785156 17.617188 9.632812 C 17.207031 10.351562 17 11.148438 17 12.019531 C 17 12.671875 17.125 13.230469 17.378906 13.695312 C 17.664062 14.226562 18.082031 14.550781 18.644531 14.675781 C 18.792969 14.710938 18.9375 14.726562 19.070312 14.726562 C 19.839844 14.726562 20.453125 14.304688 20.929688 13.457031 C 21.339844 12.730469 21.546875 11.933594 21.546875 11.0625 C 21.546875 10.402344 21.417969 9.851562 21.164062 9.394531 C 20.882812 8.863281 20.460938 8.542969 19.902344 8.414062 C 19.75 8.378906 19.609375 8.363281 19.472656 8.363281 Z M 14.019531 9.726562 C 14.039062 9.726562 14.078125 9.730469 14.140625 9.742188 C 14.292969 9.777344 14.402344 9.835938 14.519531 10.058594 C 14.660156 10.308594 14.726562 10.640625 14.726562 11.0625 C 14.726562 11.699219 14.582031 12.261719 14.285156 12.792969 C 13.964844 13.363281 13.730469 13.363281 13.617188 13.363281 C 13.597656 13.363281 13.558594 13.359375 13.492188 13.347656 C 13.335938 13.3125 13.238281 13.257812 13.125 13.042969 C 12.980469 12.78125 12.910156 12.4375 12.910156 12.019531 C 12.910156 11.382812 13.050781 10.824219 13.347656 10.308594 C 13.675781 9.726562 13.917969 9.726562 14.019531 9.726562 M 14.019531 8.363281 C 13.261719 8.363281 12.644531 8.785156 12.160156 9.632812 C 11.75 10.351562 11.546875 11.148438 11.546875 12.019531 C 11.546875 12.671875 11.671875 13.230469 11.925781 13.695312 C 12.210938 14.226562 12.628906 14.550781 13.191406 14.675781 C 13.339844 14.710938 13.480469 14.726562 13.617188 14.726562 C 14.382812 14.726562 15 14.304688 15.472656 13.457031 C 15.886719 12.730469 16.089844 11.933594 16.089844 11.0625 C 16.089844 10.402344 15.964844 9.851562 15.710938 9.394531 C 15.425781 8.863281 15 8.542969 14.445312 8.414062 C 14.296875 8.378906 14.152344 8.363281 14.019531 8.363281 Z M 9.5 15.636719 C 9.308594 15.636719 9.121094 15.554688 8.988281 15.40625 C 7.992188 14.28125 7.378906 12.800781 7.015625 11.613281 C 6.496094 12.714844 5.796875 14.121094 5.085938 15.304688 C 4.945312 15.539062 4.679688 15.664062 4.40625 15.628906 C 4.136719 15.59375 3.914062 15.398438 3.84375 15.132812 C 2.835938 11.4375 2.476562 8.792969 2.460938 8.679688 C 2.410156 8.308594 2.671875 7.964844 3.046875 7.914062 C 3.421875 7.867188 3.761719 8.125 3.8125 8.5 C 3.816406 8.523438 4.070312 10.398438 4.734375 13.136719 C 5.746094 11.222656 6.589844 9.257812 6.601562 9.230469 C 6.722656 8.949219 7.019531 8.78125 7.320312 8.824219 C 7.621094 8.863281 7.863281 9.105469 7.902344 9.40625 C 7.90625 9.429688 8.148438 11.144531 8.921875 12.792969 C 9.25 9.535156 10.230469 7.867188 10.277344 7.785156 C 10.472656 7.460938 10.894531 7.355469 11.214844 7.550781 C 11.539062 7.742188 11.640625 8.164062 11.449219 8.484375 C 11.4375 8.507812 10.183594 10.6875 10.183594 14.953125 C 10.183594 15.238281 10.007812 15.492188 9.742188 15.589844 C 9.664062 15.621094 9.582031 15.636719 9.5 15.636719 Z M 9.5 15.636719 "></path>
                                        </svg>