<svg width="30" height="29" viewBox="0 0 30 29" fill="none" xmlns="http://www.w3.org/2000/svg">
<g clip-path="url(#clip0_1_3)">
<path d="M27.1354 0.958518L14.6671 5.59986C14.2056 5.77168 13.8314 6.31023 13.8314 6.80273V15.6755C13.8314 16.168 14.2056 16.428 14.6671 16.2562L27.1354 11.6149C27.5969 11.443 27.9711 10.9045 27.9711 10.412V1.53918C27.9711 1.04667 27.5969 0.786699 27.1354 0.958518Z" fill="#262142"/>
<path d="M22.3203 3.56417H3.09362C2.73404 3.56417 2.44254 3.85567 2.44254 4.21525V28.1324C2.44254 28.4919 2.73404 28.7834 3.09362 28.7834H22.3203C22.6799 28.7834 22.9714 28.4919 22.9714 28.1324V4.21525C22.9714 3.85567 22.6799 3.56417 22.3203 3.56417Z" fill="#262142"/>
<path d="M3.89553 4.93846V27.4091H21.5185V13.4813L15.2182 15.7985C14.3945 16.1014 13.7315 15.6389 13.7315 14.7613V7.5609C13.7315 6.68331 14.3945 5.73295 15.2182 5.43002L16.5548 4.93846H3.89553Z" fill="#FAFAFA"/>
<path d="M10.8307 8.26472H6.68547C6.39052 8.26472 6.15141 8.50383 6.15141 8.79878V8.84964C6.15141 9.14459 6.39052 9.38369 6.68547 9.38369H10.8307C11.1257 9.38369 11.3648 9.14459 11.3648 8.84964V8.79878C11.3648 8.50383 11.1257 8.26472 10.8307 8.26472Z" fill="#262142"/>
<path d="M10.8307 11.3165H6.68547C6.39052 11.3165 6.15141 11.5556 6.15141 11.8505V11.9014C6.15141 12.1963 6.39052 12.4354 6.68547 12.4354H10.8307C11.1257 12.4354 11.3648 12.1963 11.3648 11.9014V11.8505C11.3648 11.5556 11.1257 11.3165 10.8307 11.3165Z" fill="#262142"/>
<path d="M10.8307 14.3428H6.68547C6.39052 14.3428 6.15141 14.5819 6.15141 14.8768V14.9277C6.15141 15.2226 6.39052 15.4617 6.68547 15.4617H10.8307C11.1257 15.4617 11.3648 15.2226 11.3648 14.9277V14.8768C11.3648 14.5819 11.1257 14.3428 10.8307 14.3428Z" fill="#262142"/>
<path d="M19.1746 21.5358H6.68547C6.39052 21.5358 6.15141 21.7749 6.15141 22.0698V22.1207C6.15141 22.4156 6.39052 22.6547 6.68547 22.6547H19.1746C19.4696 22.6547 19.7087 22.4156 19.7087 22.1207V22.0698C19.7087 21.7749 19.4696 21.5358 19.1746 21.5358Z" fill="#262142"/>
<path d="M12.8392 24.0235H6.78257C6.43399 24.0235 6.15141 24.3061 6.15141 24.6547V24.7148C6.15141 25.0634 6.43399 25.346 6.78257 25.346H12.8392C13.1878 25.346 13.4703 25.0634 13.4703 24.7148V24.6547C13.4703 24.3061 13.1878 24.0235 12.8392 24.0235Z" fill="#262142"/>
<path d="M8.09259 20.2824C9.08498 20.2824 9.88948 19.4779 9.88948 18.4855C9.88948 17.4931 9.08498 16.6886 8.09259 16.6886C7.1002 16.6886 6.29571 17.4931 6.29571 18.4855C6.29571 19.4779 7.1002 20.2824 8.09259 20.2824Z" fill="#262142"/>
<path d="M8.09259 19.1766C8.47428 19.1766 8.7837 18.8672 8.7837 18.4855C8.7837 18.1038 8.47428 17.7944 8.09259 17.7944C7.71091 17.7944 7.40149 18.1038 7.40149 18.4855C7.40149 18.8672 7.71091 19.1766 8.09259 19.1766Z" fill="#FF7B01"/>
<path d="M12.9655 17.6138H11.1659C10.9269 17.6138 10.7331 17.8075 10.7331 18.0466V18.0878C10.7331 18.3268 10.9269 18.5206 11.1659 18.5206H12.9655C13.2045 18.5206 13.3983 18.3268 13.3983 18.0878V18.0466C13.3983 17.8075 13.2045 17.6138 12.9655 17.6138Z" fill="#262142"/>
<path d="M18.9026 17.6138H17.0471C16.8081 17.6138 16.6143 17.8075 16.6143 18.0466V18.0878C16.6143 18.3268 16.8081 18.5206 17.0471 18.5206H18.9026C19.1417 18.5206 19.3354 18.3268 19.3354 18.0878V18.0466C19.3354 17.8075 19.1417 17.6138 18.9026 17.6138Z" fill="#262142"/>
<path d="M18.7792 24.0235H15.4292C15.0806 24.0235 14.798 24.3061 14.798 24.6547V24.7148C14.798 25.0634 15.0806 25.346 15.4292 25.346H18.7792C19.1278 25.346 19.4104 25.0634 19.4104 24.7148V24.6547C19.4104 24.3061 19.1278 24.0235 18.7792 24.0235Z" fill="#C2DCF5"/>
<path d="M25.6877 2.39929C25.3865 2.61664 15.5042 6.55972 15.5042 6.55972L20.6938 9.109C20.6938 9.109 25.394 2.70694 25.6877 2.39929ZM26.5922 3.58423L23.464 7.37351L26.5922 9.10283V3.58423ZM14.9446 7.65321C14.9446 7.65321 14.7895 12.781 14.9446 12.7394C15.0997 12.6979 17.8184 9.15359 17.8184 9.15359L14.9446 7.65321ZM22.5232 8.49248C22.5232 8.49248 21.507 10.0836 20.8956 10.4252C20.5 10.5691 19.0898 9.66221 19.0898 9.66221L15.1735 14.6722L26.2105 10.4507L22.5232 8.49248Z" fill="#8C4BF6"/>
<path d="M25.6878 2.39925C25.3865 2.6166 15.5042 6.55968 15.5042 6.55968L16.3671 6.98364L24.8487 3.49109C25.2907 2.90173 25.6183 2.47202 25.6878 2.39925Z" fill="#B991FA"/>
<path d="M25.0308 9.8241L16.2253 13.3267L15.1736 14.6721L26.2105 10.4507L25.0308 9.8241Z" fill="#650DF4"/>
<path d="M26.5922 3.58419L25.9786 4.3275V8.7635L26.5922 9.10279V3.58419Z" fill="#650DF4"/>
<path d="M14.4878 4.93836L14.4718 4.94413C13.5445 5.27794 12.798 6.34013 12.798 7.32572V14.4417C12.798 15.3067 13.3733 15.8164 14.1409 15.7025C13.8876 15.5118 13.7316 15.1857 13.7316 14.7613V7.56081C13.7316 6.68323 14.3946 5.73287 15.2182 5.42995L16.5548 4.93838L14.4878 4.93836Z" fill="#C2DCF5"/>
<path d="M13.5236 4.93836C13.0999 5.3727 12.816 5.97193 12.816 6.54355V13.744C12.816 14.4077 13.1956 14.8332 13.7367 14.8706C13.733 14.8346 13.7315 14.7988 13.7315 14.7612V7.56079C13.7315 6.68321 14.3945 5.73286 15.2181 5.42992L16.5547 4.93836H13.5236ZM21.5185 13.4812L20.603 13.818V26.3917H3.89557V27.409H21.5185V13.4812Z" fill="#C2D8F4"/>
</g>
<defs>
<clipPath id="clip0_1_3">
<rect width="30" height="29" fill="white"/>
</clipPath>
</defs>
</svg>
